<?xml version="1.0" encoding="UTF-8" standalone="no"?>
<!-- Created with Inkscape (http://www.inkscape.org/) -->

<svg
   xmlns:dc="http://purl.org/dc/elements/1.1/"
   xmlns:cc="http://creativecommons.org/ns#"
   xmlns:rdf="http://www.w3.org/1999/02/22-rdf-syntax-ns#"
   xmlns:svg="http://www.w3.org/2000/svg"
   xmlns="http://www.w3.org/2000/svg"
   xmlns:sodipodi="http://sodipodi.sourceforge.net/DTD/sodipodi-0.dtd"
   xmlns:inkscape="http://www.inkscape.org/namespaces/inkscape"
   width="210mm"
   height="297mm"
   viewBox="0 0 744.09448819 1052.3622047"
   id="svg2"
   version="1.1"
   inkscape:version="0.91 r13725"
   sodipodi:docname="logo.svg">
  <defs
     id="defs4" />
  <sodipodi:namedview
     id="base"
     pagecolor="#ffffff"
     bordercolor="#666666"
     borderopacity="1.0"
     inkscape:pageopacity="0.0"
     inkscape:pageshadow="2"
     inkscape:zoom="0.79040865"
     inkscape:cx="619.98665"
     inkscape:cy="482.38371"
     inkscape:document-units="px"
     inkscape:current-layer="layer1"
     showgrid="false"
     inkscape:window-width="1319"
     inkscape:window-height="744"
     inkscape:window-x="47"
     inkscape:window-y="24"
     inkscape:window-maximized="1" />
  <metadata
     id="metadata7">
    <rdf:RDF>
      <cc:Work
         rdf:about="">
        <dc:format>image/svg+xml</dc:format>
        <dc:type
           rdf:resource="http://purl.org/dc/dcmitype/StillImage" />
        <dc:title />
      </cc:Work>
    </rdf:RDF>
  </metadata>
  <g
     inkscape:label="Layer 1"
     inkscape:groupmode="layer"
     id="layer1">
    <path
       style="opacity:1;fill:#000000;fill-opacity:1;fill-rule:evenodd;stroke:none;stroke-width:0.2480315;stroke-linecap:round;stroke-linejoin:miter;stroke-miterlimit:4;stroke-dasharray:none;stroke-dashoffset:69.63451385;stroke-opacity:1"
       d="M 139.05078 303.97656 C 117.75683 303.97656 100.61328 321.11815 100.61328 342.41211 L 100.61328 467.89844 C 100.61328 489.19239 117.75683 506.33398 139.05078 506.33398 L 264.53516 506.33398 C 285.82911 506.33398 302.97266 489.19239 302.97266 467.89844 L 302.97266 342.41211 C 302.97266 321.11815 285.82911 303.97656 264.53516 303.97656 L 139.05078 303.97656 z M 202.63672 329.11719 L 219.45898 381.61133 L 274.58398 381.59375 L 229.85547 413.81445 L 246.90625 466.23438 L 202.44141 433.65234 L 157.85547 466.06836 L 175.10156 413.71094 L 130.49609 381.32422 L 185.61914 381.54883 L 202.63672 329.11719 z "
       id="rect4138" />
    <path
       sodipodi:type="star"
       style="opacity:1;fill:#000000;fill-opacity:1;fill-rule:evenodd;stroke:none;stroke-width:0.2480315;stroke-linecap:round;stroke-linejoin:miter;stroke-miterlimit:4;stroke-dasharray:none;stroke-dashoffset:69.63451385;stroke-opacity:1"
       id="path4140"
       sodipodi:sides="3"
       sodipodi:cx="202.35814"
       sodipodi:cy="518.76978"
       sodipodi:r1="29.392801"
       sodipodi:r2="14.696401"
       sodipodi:arg1="1.5707963"
       sodipodi:arg2="2.6179939"
       inkscape:flatsided="false"
       inkscape:rounded="0"
       inkscape:randomized="0"
       d="m 202.35814,548.16258 -12.72746,-22.0446 -12.72745,-22.0446 25.45491,-10e-6 25.45491,0 -12.72745,22.04461 z"
       inkscape:transform-center-y="7.3482005" />
    <path
       sodipodi:type="star"
       style="opacity:1;fill:#000000;fill-opacity:1;fill-rule:evenodd;stroke:none;stroke-width:0.2480315;stroke-linecap:round;stroke-linejoin:miter;stroke-miterlimit:4;stroke-dasharray:none;stroke-dashoffset:69.63451385;stroke-opacity:1"
       id="path4140-5"
       sodipodi:sides="3"
       sodipodi:cx="475.60262"
       sodipodi:cy="520.62523"
       sodipodi:r1="29.392801"
       sodipodi:r2="14.696401"
       sodipodi:arg1="1.5707963"
       sodipodi:arg2="2.6179939"
       inkscape:flatsided="false"
       inkscape:rounded="0"
       inkscape:randomized="0"
       d="m 475.60263,550.01805 -12.72746,-22.04461 -12.72745,-22.0446 25.45491,0 25.45491,0 -12.72745,22.0446 z"
       inkscape:transform-center-y="7.3482005" />
    <rect
       style="opacity:1;fill:#000000;fill-opacity:1;fill-rule:evenodd;stroke:none;stroke-width:0.2480315;stroke-linecap:round;stroke-linejoin:miter;stroke-miterlimit:4;stroke-dasharray:none;stroke-dashoffset:69.63451385;stroke-opacity:1"
       id="rect3364"
       width="203.07626"
       height="200.39244"
       x="373.052"
       y="306.25821"
       ry="38.436699" />
    <path
       sodipodi:type="star"
       style="opacity:1;fill:#ffffff;fill-opacity:1;fill-rule:evenodd;stroke:none;stroke-width:0.2480315;stroke-linecap:round;stroke-linejoin:miter;stroke-miterlimit:4;stroke-dasharray:none;stroke-dashoffset:69.63451385;stroke-opacity:1"
       id="path3366"
       sodipodi:sides="5"
       sodipodi:cx="433.22662"
       sodipodi:cy="358.10315"
       sodipodi:r1="98.387383"
       sodipodi:r2="33.451714"
       sodipodi:arg1="1.1126432"
       sodipodi:arg2="1.7409617"
       inkscape:flatsided="false"
       inkscape:rounded="0"
       inkscape:randomized="0"
       d="m 476.74262,446.34393 -49.18089,-55.27222 -64.80989,35.68551 37.36927,-63.85386 -53.9663,-50.61044 72.27637,15.80836 31.45689,-66.96448 7.29998,73.62396 73.40772,9.22412 -67.76473,29.69375 z"
       inkscape:transform-center-x="40.333535"
       inkscape:transform-center-y="6.5095652"
       transform="matrix(1.5426589,-0.32126063,0.30237046,1.6390344,-303.43586,-42.463195)" />
    <path
       style="fill:#000000;stroke:#ffffff;stroke-width:3.81489801;stroke-miterlimit:4;stroke-dasharray:none;stroke-opacity:1"
       d="m 510.09676,340.87975 c 4.71578,0.62333 10.0896,2.45624 13.98319,4.76937 4.33244,2.57389 7.45614,5.30569 10.42575,9.1178 7.55611,9.69985 9.83015,22.55398 6.03806,34.13021 -1.17209,3.57811 -2.23271,5.69454 -5.68373,11.34183 -1.49624,2.44848 -4.74907,7.81249 -7.22843,11.92005 -10.57865,17.52533 -11.13559,18.33974 -14.92068,21.81892 -5.84211,5.3699 -12.20588,8.36855 -20.37188,9.59931 -3.58931,0.54098 -6.22342,0.53853 -9.9123,-0.01 -4.26692,-0.63356 -7.38731,-1.60804 -11.24092,-3.51043 -9.95344,-4.91368 -14.90312,-11.56133 -14.89724,-20.00757 0.002,-4.55166 1.0245,-7.77438 3.85368,-12.15997 2.28107,-3.53597 4.16409,-4.75025 7.36337,-4.74827 2.86745,0.002 4.39676,1.44001 4.40918,4.14675 0.0149,3.2667 1.5923,7.3293 3.84579,9.90538 5.9515,6.80343 16.26514,7.20604 22.6287,0.88335 1.38844,-1.37946 2.61519,-3.11933 4.96779,-7.04554 3.15677,-5.26825 6.99404,-11.6061 12.79732,-21.13665 3.77971,-6.20728 4.523,-7.98434 4.71508,-11.27286 0.18468,-3.16197 -0.23853,-5.28683 -1.60688,-8.06786 -4.63362,-9.41727 -17.28314,-11.49034 -24.71505,-4.05044 -0.90305,0.90404 -2.02237,2.28104 -2.48741,3.06 -0.83372,1.39658 -1.64659,2.01276 -2.65537,2.01276 -0.28336,0 -1.45047,-0.42504 -2.5936,-0.94452 -2.60919,-1.1857 -6.43636,-2.58543 -8.27846,-3.0277 -2.65307,-0.63697 -4.07212,-1.63727 -5.03982,-3.55252 -0.56744,-1.12306 -0.5887,-3.44786 -0.0435,-4.75265 1.0852,-2.59726 5.70266,-8.10633 8.88796,-10.60415 4.71888,-3.70039 10.40131,-6.30389 16.20476,-7.42441 2.7716,-0.53516 8.89625,-0.74239 11.5547,-0.39098 z m -39.45505,33.22303 c 5.02431,0.49755 9.07013,1.65118 13.42576,3.82825 5.90846,2.95317 10.3853,6.93307 12.49981,11.11226 1.52543,3.01484 1.88554,4.45982 2.03975,8.18419 0.12532,3.02784 0.0608,3.8386 -0.45559,5.72077 -1.0614,3.8688 -3.95416,8.85961 -5.99,10.33434 -2.91004,2.10801 -6.64319,2.05129 -8.3566,-0.12693 -0.38447,-0.48879 -0.61745,-1.37804 -0.75828,-2.89432 -0.26235,-2.82465 -1.28933,-6.04444 -2.49596,-7.82519 -3.47553,-5.12931 -9.11764,-7.75313 -14.984,-6.96823 -2.81608,0.37679 -4.9821,1.24957 -7.33377,2.95506 -2.17213,1.57531 -3.17695,2.90446 -7.18818,9.5087 -17.02497,28.03052 -16.76652,27.55039 -16.99769,31.57488 -0.64,11.14025 10.44562,19.34806 20.90089,15.47502 2.92194,-1.0824 5.74945,-3.36064 7.92122,-6.38246 0.46767,-0.65069 1.12085,-1.32786 1.45147,-1.50483 0.98237,-0.52574 3.04731,-0.15095 5.96584,1.08283 1.5096,0.63815 3.86434,1.46712 5.23277,1.84209 1.36849,0.37498 2.87285,0.88074 3.34309,1.12392 1.20698,0.62412 2.54682,2.24099 2.89448,3.4928 0.61907,2.22934 0.2961,3.52676 -1.58077,6.34995 -5.69695,8.56946 -14.36711,14.05443 -25.1108,15.88576 -4.14731,0.70694 -10.19283,0.42527 -14.4395,-0.67276 -1.78365,-0.46119 -4.22032,-1.24537 -5.41483,-1.74264 -4.0903,-1.7028 -8.98698,-5.05679 -12.15581,-8.32616 -1.44375,-1.48957 -4.40946,-5.26411 -4.40945,-5.61207 -2e-5,-0.11286 -0.31471,-0.61769 -0.69933,-1.12196 -0.94991,-1.2454 -2.74278,-5.18465 -3.60718,-7.9256 -1.88491,-5.97695 -2.12656,-13.52481 -0.64015,-19.9957 0.9788,-4.26114 2.38587,-7.11742 8.26591,-16.77936 2.40543,-3.95254 5.24953,-8.64488 6.32022,-10.4274 9.06663,-15.0945 10.25598,-16.82448 13.92945,-20.26141 7.62788,-7.13672 18.41603,-10.89524 28.42722,-9.90383 z"
       id="path3379"
       inkscape:connector-curvature="0" />
    <path
       sodipodi:type="star"
       style="opacity:1;fill:#000000;fill-opacity:1;fill-rule:evenodd;stroke:none;stroke-width:0.2480315;stroke-linecap:round;stroke-linejoin:miter;stroke-miterlimit:4;stroke-dasharray:none;stroke-dashoffset:69.63451385;stroke-opacity:1"
       id="path4140-5-0"
       sodipodi:sides="3"
       sodipodi:cx="723.42365"
       sodipodi:cy="514.79546"
       sodipodi:r1="29.392801"
       sodipodi:r2="14.696401"
       sodipodi:arg1="1.5707963"
       sodipodi:arg2="2.6179939"
       inkscape:flatsided="false"
       inkscape:rounded="0"
       inkscape:randomized="0"
       d="m 723.42365,544.18827 -12.72746,-22.0446 -12.72746,-22.0446 25.45492,0 25.45491,0 -12.72746,22.0446 z"
       inkscape:transform-center-y="7.3482005"
       inkscape:export-xdpi="1200"
       inkscape:export-ydpi="1200" />
    <path
       style="opacity:1;fill:#000000;fill-opacity:1;fill-rule:evenodd;stroke:none;stroke-width:0.2480315;stroke-linecap:round;stroke-linejoin:miter;stroke-miterlimit:4;stroke-dasharray:none;stroke-dashoffset:69.63451385;stroke-opacity:1"
       d="M 659.31055 300.42773 C 638.01662 300.42773 620.87305 317.5713 620.87305 338.86523 L 620.87305 462.38477 C 620.87305 483.6787 638.01662 500.82031 659.31055 500.82031 L 785.51172 500.82031 C 806.80565 500.82031 823.94922 483.6787 823.94922 462.38477 L 823.94922 338.86523 C 823.94922 317.5713 806.80565 300.42773 785.51172 300.42773 L 659.31055 300.42773 z M 751.58594 332.35742 C 752.57727 332.37905 753.45843 332.43168 754.12305 332.51953 C 758.83883 333.14286 764.21188 334.97593 768.10547 337.28906 C 772.43791 339.86295 775.56164 342.59414 778.53125 346.40625 C 786.08736 356.1061 788.36045 368.96088 784.56836 380.53711 C 783.39627 384.11522 782.33579 386.23162 778.88477 391.87891 C 777.38853 394.32739 774.13561 399.69127 771.65625 403.79883 C 761.0776 421.32416 760.52142 422.13801 756.73633 425.61719 C 750.89422 430.98709 744.53123 433.98604 736.36523 435.2168 C 732.77592 435.75778 730.142 435.75556 726.45312 435.20703 C 722.1862 434.57347 719.06455 433.59966 715.21094 431.69727 C 705.2575 426.78359 700.30857 420.13569 700.31445 411.68945 C 700.31645 407.13779 701.33879 403.91489 704.16797 399.5293 C 706.44904 395.99333 708.33197 394.77927 711.53125 394.78125 C 714.3987 394.78325 715.92703 396.22099 715.93945 398.92773 C 715.95435 402.19443 717.53167 406.2579 719.78516 408.83398 C 725.73666 415.63741 736.0505 416.03949 742.41406 409.7168 C 743.8025 408.33734 745.03021 406.59613 747.38281 402.66992 C 750.53958 397.40167 754.37641 391.06571 760.17969 381.53516 C 763.9594 375.32788 764.70245 373.55024 764.89453 370.26172 C 765.07921 367.09975 764.65741 364.97439 763.28906 362.19336 C 758.65544 352.77609 746.00418 350.70268 738.57227 358.14258 C 737.66922 359.04662 736.55098 360.42417 736.08594 361.20312 C 735.25222 362.5997 734.43847 363.21484 733.42969 363.21484 C 733.14633 363.21484 731.97907 362.79096 730.83594 362.27148 C 728.22675 361.08578 724.40069 359.68641 722.55859 359.24414 C 719.90552 358.60717 718.48528 357.60666 717.51758 355.69141 C 716.95014 354.56835 716.92941 352.24229 717.47461 350.9375 C 718.55981 348.34024 723.17798 342.8318 726.36328 340.33398 C 731.08216 336.63359 736.76491 334.03068 742.56836 332.91016 C 744.64706 332.50879 748.61193 332.29254 751.58594 332.35742 z M 710.88477 365.5918 C 712.15275 365.56997 713.41657 365.61826 714.66797 365.74219 C 719.69228 366.23974 723.73812 367.39324 728.09375 369.57031 C 734.00221 372.52348 738.47729 376.5044 740.5918 380.68359 C 742.11723 383.69843 742.4786 385.14282 742.63281 388.86719 C 742.75813 391.89503 742.69412 392.70572 742.17773 394.58789 C 741.11633 398.45669 738.22334 403.44715 736.1875 404.92188 C 733.27746 407.02988 729.54349 406.97314 727.83008 404.79492 C 727.44561 404.30613 727.2131 403.41667 727.07227 401.90039 C 726.80992 399.07574 725.7828 395.85692 724.57617 394.07617 C 721.10064 388.94686 715.45816 386.32252 709.5918 387.10742 C 706.77572 387.48421 704.60948 388.35701 702.25781 390.0625 C 700.08568 391.63781 699.08154 392.96803 695.07031 399.57227 C 678.04534 427.60279 678.30344 427.12199 678.07227 431.14648 C 677.43227 442.28673 688.51739 450.49413 698.97266 446.62109 C 701.8946 445.53869 704.72276 443.2601 706.89453 440.23828 C 707.3622 439.58759 708.01508 438.91135 708.3457 438.73438 C 709.32807 438.20864 711.39397 438.58263 714.3125 439.81641 C 715.8221 440.45456 718.17649 441.28323 719.54492 441.6582 C 720.91341 442.03318 722.41843 442.54002 722.88867 442.7832 C 724.09565 443.40732 725.43359 445.02358 725.78125 446.27539 C 726.40032 448.50473 726.07804 449.80181 724.20117 452.625 C 718.50422 461.19446 709.83353 466.68039 699.08984 468.51172 C 694.94253 469.21866 688.89706 468.93592 684.65039 467.83789 C 682.86674 467.3767 680.43084 466.59297 679.23633 466.0957 C 675.14603 464.3929 670.24891 461.0389 667.08008 457.76953 C 665.63633 456.27996 662.67186 452.50616 662.67188 452.1582 C 662.67186 452.04534 662.35728 451.53943 661.97266 451.03516 C 661.02275 449.78976 659.22963 445.85228 658.36523 443.11133 C 656.48032 437.13438 656.2382 429.58612 657.72461 423.11523 C 658.70341 418.85409 660.11019 415.99788 665.99023 406.33594 C 668.39566 402.3834 671.23986 397.69072 672.31055 395.9082 C 681.37718 380.8137 682.56676 379.08341 686.24023 375.64648 C 692.91463 369.40185 702.00884 365.74461 710.88477 365.5918 z "
       id="rect3364-8"
       inkscape:export-xdpi="1200"
       inkscape:export-ydpi="1200" />
  </g>
</svg>
